# Blender v2.79 (sub 0) OBJ File: ''
# www.blender.org
mtllib Bone.mtl
o Cube_Cube.001
v 0.000000 0.000000 0.000000
v 0.000000 1.000000 0.000000
v -0.097377 0.125219 0.097377
v -0.097377 0.125219 -0.097377
v 0.097377 0.125219 -0.097377
v 0.097377 0.125219 0.097377
vn -0.9939 0.1106 0.0000
vn 0.0000 0.1106 -0.9939
vn 0.9939 0.1106 0.0000
vn 0.0000 -0.6139 0.7894
vn 0.7894 -0.6139 0.0000
vn 0.0000 -0.6139 -0.7894
vn -0.7894 -0.6139 0.0000
vn 0.0000 0.1106 0.9939
usemtl None
s off
f 3//1 2//1 4//1
f 2//2 5//2 4//2
f 2//3 6//3 5//3
f 1//4 6//4 3//4
f 1//5 5//5 6//5
f 1//6 4//6 5//6
f 1//7 3//7 4//7
f 3//8 6//8 2//8
